HIERARCHY
ROOT Hips
{
    OFFSET 0.000000 0.000000 0.000000
    CHANNELS 6 Xposition Yposition Zposition Zrotation Xrotation Yrotation
    JOINT Spine
    {
        OFFSET 0.000001 7.292995 0.000000
        CHANNELS 3 Zrotation Xrotation Yrotation
        JOINT Spine1
        {
            OFFSET -0.000000 20.255388 0.000001
            CHANNELS 3 Zrotation Xrotation Yrotation
            JOINT Neck
            {
                OFFSET 0.000001 20.786594 0.000000
                CHANNELS 3 Zrotation Xrotation Yrotation
                JOINT Head
                {
                    OFFSET 0.000003 12.530788 1.776080
                    CHANNELS 3 Zrotation Xrotation Yrotation
                    End Site
                    {
                        OFFSET 0.000000 17.760757 0.000000
                    }
                }
            }
            JOINT LeftShoulder
            {
                OFFSET 3.550532 15.465697 -0.908801
                CHANNELS 3 Zrotation Xrotation Yrotation
                JOINT LeftArm
                {
                    OFFSET 12.513301 -0.000005 0.000001
                    CHANNELS 3 Zrotation Xrotation Yrotation
                    JOINT LeftForeArm
                    {
                        OFFSET 24.225992 0.000005 0.000000
                        CHANNELS 3 Zrotation Xrotation Yrotation
                        JOINT LeftHand
                        {
                            OFFSET 20.711395 -0.000004 0.000000
                            CHANNELS 3 Zrotation Xrotation Yrotation
                            JOINT LeftHandThumb1
                            {
                                OFFSET 2.121964 -2.411326 3.375861
                                CHANNELS 3 Zrotation Xrotation Yrotation
                                JOINT LeftHandThumb2
                                {
                                    OFFSET 2.803212 -0.000001 -0.000002
                                    CHANNELS 3 Zrotation Xrotation Yrotation
                                    JOINT LeftHandThumb3
                                    {
                                        OFFSET 2.395929 0.000000 0.000000
                                        CHANNELS 3 Zrotation Xrotation Yrotation
                                        End Site
                                        {
                                            OFFSET 2.127676 0.000000 0.000000
                                        }
                                    }
                                }
                            }
                            JOINT LeftHandIndex1
                            {
                                OFFSET 8.680776 0.000004 3.375861
                                CHANNELS 3 Zrotation Xrotation Yrotation
                                JOINT LeftHandIndex2
                                {
                                    OFFSET 4.218180 -0.000002 0.000001
                                    CHANNELS 3 Zrotation Xrotation Yrotation
                                    JOINT LeftHandIndex3
                                    {
                                        OFFSET 2.109090 0.000001 -0.000000
                                        CHANNELS 3 Zrotation Xrotation Yrotation
                                        End Site
                                        {
                                            OFFSET 1.872952 0.000000 0.000000
                                        }
                                    }
                                }
                            }
                            JOINT LeftHandMiddle1
                            {
                                OFFSET 8.680775 0.000001 1.118862
                                CHANNELS 3 Zrotation Xrotation Yrotation
                                JOINT LeftHandMiddle2
                                {
                                    OFFSET 4.640000 0.000002 -0.000000
                                    CHANNELS 3 Zrotation Xrotation Yrotation
                                    JOINT LeftHandMiddle3
                                    {
                                        OFFSET 2.530906 0.000005 0.000000
                                        CHANNELS 3 Zrotation Xrotation Yrotation
                                        End Site
                                        {
                                            OFFSET 2.247544 0.000000 0.000000
                                        }
                                    }
                                }
                            }
                            JOINT LeftHandRing1
                            {
                                OFFSET 8.198514 -0.000004 -1.118859
                                CHANNELS 3 Zrotation Xrotation Yrotation
                                JOINT LeftHandRing2
                                {
                                    OFFSET 4.218182 -0.000003 -0.000001
                                    CHANNELS 3 Zrotation Xrotation Yrotation
                                    JOINT LeftHandRing3
                                    {
                                        OFFSET 2.109086 0.000004 0.000001
                                        CHANNELS 3 Zrotation Xrotation Yrotation
                                        End Site
                                        {
                                            OFFSET 1.872952 0.000000 0.000000
                                        }
                                    }
                                }
                            }
                            JOINT LeftHandPinky1
                            {
                                OFFSET 7.716242 0.000005 -3.375859
                                CHANNELS 3 Zrotation Xrotation Yrotation
                                JOINT LeftHandPinky2
                                {
                                    OFFSET 3.374535 0.000004 0.000002
                                    CHANNELS 3 Zrotation Xrotation Yrotation
                                    JOINT LeftHandPinky3
                                    {
                                        OFFSET 1.687275 0.000002 -0.000001
                                        CHANNELS 3 Zrotation Xrotation Yrotation
                                        End Site
                                        {
                                            OFFSET 1.498360 0.000000 0.000000
                                        }
                                    }
                                }
                            }
                        }
                    }
                }
            }
            JOINT RightShoulder
            {
                OFFSET -3.550531 15.465694 -0.908802
                CHANNELS 3 Zrotation Xrotation Yrotation
                JOINT RightArm
                {
                    OFFSET -12.513298 -0.000004 0.000001
                    CHANNELS 3 Zrotation Xrotation Yrotation
                    JOINT RightForeArm
                    {
                        OFFSET -24.225996 -0.000002 -0.000000
                        CHANNELS 3 Zrotation Xrotation Yrotation
                        JOINT RightHand
                        {
                            OFFSET -20.711401 0.000005 0.000001
                            CHANNELS 3 Zrotation Xrotation Yrotation
                            JOINT RightHandThumb1
                            {
                                OFFSET -2.121970 -2.411334 3.375861
                                CHANNELS 3 Zrotation Xrotation Yrotation
                                JOINT RightHandThumb2
                                {
                                    OFFSET -2.803210 0.000003 -0.000004
                                    CHANNELS 3 Zrotation Xrotation Yrotation
                                    JOINT RightHandThumb3
                                    {
                                        OFFSET -2.395930 -0.000001 0.000002
                                        CHANNELS 3 Zrotation Xrotation Yrotation
                                        End Site
                                        {
                                            OFFSET -2.127676 0.000000 0.000000
                                        }
                                    }
                                }
                            }
                            JOINT RightHandIndex1
                            {
                                OFFSET -8.680779 0.000001 3.375860
                                CHANNELS 3 Zrotation Xrotation Yrotation
                                JOINT RightHandIndex2
                                {
                                    OFFSET -4.218180 0.000000 -0.000000
                                    CHANNELS 3 Zrotation Xrotation Yrotation
                                    JOINT RightHandIndex3
                                    {
                                        OFFSET -2.109090 0.000001 -0.000000
                                        CHANNELS 3 Zrotation Xrotation Yrotation
                                        End Site
                                        {
                                            OFFSET -1.872952 0.000000 0.000000
                                        }
                                    }
                                }
                            }
                            JOINT RightHandMiddle1
                            {
                                OFFSET -8.680780 0.000001 1.118860
                                CHANNELS 3 Zrotation Xrotation Yrotation
                                JOINT RightHandMiddle2
                                {
                                    OFFSET -4.640000 -0.000002 0.000001
                                    CHANNELS 3 Zrotation Xrotation Yrotation
                                    JOINT RightHandMiddle3
                                    {
                                        OFFSET -2.530910 0.000001 -0.000000
                                        CHANNELS 3 Zrotation Xrotation Yrotation
                                        End Site
                                        {
                                            OFFSET -2.247544 0.000000 0.000000
                                        }
                                    }
                                }
                            }
                            JOINT RightHandRing1
                            {
                                OFFSET -8.198519 0.000005 -1.118860
                                CHANNELS 3 Zrotation Xrotation Yrotation
                                JOINT RightHandRing2
                                {
                                    OFFSET -4.218180 -0.000006 0.000000
                                    CHANNELS 3 Zrotation Xrotation Yrotation
                                    JOINT RightHandRing3
                                    {
                                        OFFSET -2.109090 0.000001 -0.000000
                                        CHANNELS 3 Zrotation Xrotation Yrotation
                                        End Site
                                        {
                                            OFFSET -1.872952 0.000000 0.000000
                                        }
                                    }
                                }
                            }
                            JOINT RightHandPinky1
                            {
                                OFFSET -7.716248 -0.000002 -3.375859
                                CHANNELS 3 Zrotation Xrotation Yrotation
                                JOINT RightHandPinky2
                                {
                                    OFFSET -3.374540 0.000000 0.000000
                                    CHANNELS 3 Zrotation Xrotation Yrotation
                                    JOINT RightHandPinky3
                                    {
                                        OFFSET -1.687270 0.000004 0.000001
                                        CHANNELS 3 Zrotation Xrotation Yrotation
                                        End Site
                                        {
                                            OFFSET -1.498360 0.000000 0.000000
                                        }
                                    }
                                }
                            }
                        }
                    }
                }
            }
        }
    }
    JOINT LeftUpLeg
    {
        OFFSET 8.880376 -0.000000 -0.000000
        CHANNELS 3 Zrotation Xrotation Yrotation
        JOINT LeftLeg
        {
            OFFSET -0.000001 -40.387405 -0.000001
            CHANNELS 3 Zrotation Xrotation Yrotation
            JOINT LeftFoot
            {
                OFFSET -0.000001 -36.911297 -0.000001
                CHANNELS 3 Zrotation Xrotation Yrotation
                JOINT LeftToeBase
                {
                    OFFSET -0.000002 -5.772240 13.320604
                    CHANNELS 3 Zrotation Xrotation Yrotation
                    End Site
                    {
                        OFFSET 0.000000 0.000000 3.552151
                    }
                }
            }
        }
    }
    JOINT RightUpLeg
    {
        OFFSET -8.880376 0.000000 0.000000
        CHANNELS 3 Zrotation Xrotation Yrotation
        JOINT RightLeg
        {
            OFFSET -0.000001 -40.387390 0.000000
            CHANNELS 3 Zrotation Xrotation Yrotation
            JOINT RightFoot
            {
                OFFSET 0.000002 -36.911297 -0.000001
                CHANNELS 3 Zrotation Xrotation Yrotation
                JOINT RightToeBase
                {
                    OFFSET 0.000001 -5.772238 13.320600
                    CHANNELS 3 Zrotation Xrotation Yrotation
                    End Site
                    {
                        OFFSET 0.000000 0.000000 3.552151
                    }
                }
            }
        }
    }
}
MOTION
Frames: 4
Frame Time: 0.013889
83.427788    84.753494    -0.606039    -6.137351    5.952209    6.463411    0.344952    -16.805149    1.192965    1.136926    11.312836    0.897064    3.384163    -9.442993    -10.834074    11.892125    7.105372    -13.083300    17.892714    -5.017502    3.822996    1.621605    2.344915    -43.494183    -41.990707    34.828274    -122.395081    12.225920    -21.934023    17.879469    36.576645    29.244238    -48.800911    -17.435947    -2.377696    23.202669    -0.000000    0.000000    -0.000000    6.022316    17.906971    3.871684    5.729583    0.000007    0.000001    5.729577    -0.000003    0.000001    4.251380    8.975651    2.200318    4.199224    -0.000000    -0.000001    4.199227    -0.000007    0.000005    3.476752    -8.983707    3.096400    3.434050    -0.000003    0.000004    3.434050    0.000003    -0.000002    2.806001    -17.979763    5.972463    2.668879    0.000007    0.000003    2.668872    0.000000    0.000002    -6.568324    4.542500    4.949672    27.536165    40.492447    14.613106    74.473991    29.600828    97.813759    -37.396896    -27.673588    -21.004608    -49.872520    18.362732    48.121174    8.354301    1.530359    -23.270004    -0.000000    0.000000    -0.000000    -6.022324    17.906979    -3.871680    -5.729577    -0.000000    0.000000    -5.729579    -0.000003    -0.000004    -2.316443    8.992771    -2.502514    -2.287958    0.000000    -0.000002    -2.287954    0.000003    0.000003    -0.574216    -8.999559    0.818969    -0.567139    0.000000    -0.000002    -0.567136    -0.000000    -0.000003    1.213019    -17.996183    2.192401    1.153666    -0.000001    0.000005    1.153673    0.000001    -0.000002    8.305565    -8.530845    1.996170    0.000000    15.730025    0.000000    4.589391    -3.855765    -2.347750    0.000001    3.599215    -0.000000    -7.769094    -24.822672    -2.532902    0.000001    48.960449    -0.000000    6.216004    7.894736    -4.646698    0.000001    -1.621194    0.000000    
83.801094    84.604385    -0.900011    -6.487774    6.111336    6.274659    0.345550    -16.746922    1.199062    0.695250    11.276237    0.990212    3.235734    -9.504924    -11.095054    12.078206    7.047290    -13.350475    17.107126    -5.220440    3.454841    0.642703    2.393319    -42.932293    -42.460972    35.106773    -122.148247    10.903001    -21.725565    17.400518    36.974396    28.869987    -48.904907    -16.987093    -2.185356    23.220531    -0.000000    0.000000    -0.000000    6.022320    17.906971    3.871683    5.729582    0.000003    -0.000001    5.729581    0.000000    0.000006    3.894252    8.979557    2.256053    3.846452    0.000003    -0.000003    3.846453    0.000000    0.000001    2.941036    -8.988349    3.183031    2.904889    -0.000003    0.000002    2.904890    -0.000000    -0.000001    2.064290    -17.989025    6.084073    1.963325    0.000003    -0.000006    1.963331    0.000000    0.000003    -7.014013    4.473906    4.777962    26.706450    40.134075    15.141100    75.225266    30.727236    97.674835    -37.531380    -27.554691    -20.341927    -48.947399    18.936584    48.399685    8.685884    1.387785    -23.278446    -0.000000    0.000000    -0.000000    -6.022308    17.906969    -3.871679    -5.729577    0.000002    0.000001    -5.729569    -0.000003    -0.000002    -3.458273    8.983882    -2.324113    -3.415794    0.000002    0.000003    -3.415811    0.000003    -0.000002    -2.287045    -8.992954    0.502689    -2.258911    -0.000000    0.000002    -2.258917    0.000002    -0.000002    -1.158722    -17.996511    1.362690    -1.102023    0.000000    -0.000003    -1.102030    0.000000    0.000003    8.381043    -9.242208    1.964905    -0.000000    16.640314    0.000001    4.946993    -4.784689    -2.083253    -0.000000    3.538350    -0.000000    -6.066234    -26.548737    -2.059799    -0.000001    51.129463    -0.000000    7.085351    7.865172    -3.987961    -0.000000    -1.834086    0.000000    
84.050224    84.499512    -1.104090    -6.736926    6.245361    6.138535    0.350783    -16.732725    1.218220    0.330306    11.257381    1.079753    3.133528    -9.553032    -11.314651    12.208804    6.972312    -13.569322    16.514587    -5.367954    3.182136    0.017353    2.491117    -42.513512    -42.960823    35.402477    -121.885490    10.060678    -21.352005    16.902464    37.157360    28.696474    -48.954929    -16.735226    -2.077346    23.229897    -0.000000    0.000000    -0.000000    6.022320    17.906973    3.871683    5.729580    0.000003    -0.000000    5.729579    -0.000003    -0.000000    3.650903    8.982033    2.294036    3.606082    0.000007    -0.000001    3.606075    -0.000000    -0.000003    2.575996    -8.991063    3.263704    2.544331    0.000000    0.000003    2.544327    0.000003    -0.000004    1.558837    -17.993721    6.203384    1.482576    0.000003    -0.000004    1.482582    0.000000    0.000002    -7.290347    4.311247    4.657818    26.245361    39.778606    15.503860    75.566246    31.470036    97.652893    -37.887283    -27.458187    -20.377184    -48.517025    19.174603    48.579830    8.835448    1.323451    -23.281979    -0.000000    0.000000    -0.000000    -6.022328    17.906979    -3.871686    -5.729581    -0.000002    -0.000001    -5.729577    0.000002    0.000003    -4.207640    8.976139    -2.207146    -4.156024    0.000005    -0.000003    -4.156022    0.000002    0.000003    -3.411140    -8.984318    0.339904    -3.369235    -0.000001    -0.000000    -3.369249    0.000000    0.000000    -2.715156    -17.981049    0.907688    -2.582468    0.000001    0.000002    -2.582458    -0.000001    0.000002    8.449173    -9.848782    1.907276    0.000000    17.464396    -0.000000    5.084629    -5.466220    -1.857747    -0.000000    3.418961    0.000000    -4.762524    -27.755590    -1.643518    -0.000001    52.574291    0.000001    7.574007    7.914744    -3.519293    -0.000001    -1.968824    -0.000001    
84.279701    84.405563    -1.302512    -6.968739    6.387463    5.973659    0.353328    -16.719519    1.227996    -0.052890    11.183663    1.164002    3.054820    -9.553471    -11.529539    12.341557    6.933474    -13.789577    15.863024    -5.483418    2.919778    -0.554660    2.652155    -42.124855    -43.508892    35.654442    -121.552109    9.197605    -21.008570    16.344114    37.251091    28.596886    -49.017689    -16.550192    -1.997970    23.236479    -0.000000    0.000000    -0.000000    6.022321    17.906971    3.871685    5.729577    -0.000000    -0.000006    5.729582    0.000007    -0.000003    3.476781    8.983711    2.321223    3.434082    0.000003    -0.000004    3.434083    -0.000003    0.000004    2.314800    -8.992783    3.353030    2.286333    -0.000003    -0.000002    2.286338    -0.000003    0.000005    1.197156    -17.996279    6.351936    1.138581    -0.000003    0.000000    1.138586    0.000003    0.000001    -7.436829    4.123734    4.550184    26.203241    39.314209    15.849816    75.109634    31.945881    98.008499    -39.054947    -27.331100    -21.458115    -48.434746    19.147840    48.720615    8.845184    1.319257    -23.282206    -0.000000    0.000000    -0.000000    -6.022316    17.906969    -3.871686    -5.729584    -0.000000    0.000000    -5.729582    0.000000    -0.000002    -4.868586    8.968050    -2.104069    -4.808933    -0.000002    -0.000000    -4.808946    0.000002    0.000000    -4.402602    -8.973886    0.211838    -4.348612    -0.000001    -0.000005    -4.348616    0.000000    0.000000    -4.087714    -17.957111    0.537586    -3.888299    0.000000    0.000002    -3.888283    -0.000006    -0.000002    8.528741    -10.513611    1.876164    0.000000    18.383810    -0.000001    5.125179    -6.037187    -1.672852    0.000001    3.286274    0.000001    -3.454026    -28.883535    -1.210092    0.000004    53.831783    -0.000004    7.958992    7.974801    -3.129783    0.000000    -2.100282    0.000000    
